<?xml version="1.0" standalone="no"?>
<!DOCTYPE svg PUBLIC "-//W3C//DTD SVG 20010904//EN"
 "http://www.w3.org/TR/2001/REC-SVG-20010904/DTD/svg10.dtd">
<svg version="1.0" xmlns="http://www.w3.org/2000/svg"
 width="1074.000000pt" height="1074.000000pt" viewBox="0 0 1074.000000 1074.000000"
 preserveAspectRatio="xMidYMid meet">
<metadata>
Created by potrace 1.11, written by Peter Selinger 2001-2013
</metadata>
<g transform="translate(0.000000,1074.000000) scale(0.100000,-0.100000)"
fill="#000000" stroke="none">
<path d="M6471 9859 c-120 -23 -207 -117 -478 -521 -289 -431 -518 -800 -823
-1324 l-93 -161 -100 -7 c-273 -18 -576 -27 -826 -24 -263 3 -279 2 -341 -19
-149 -51 -212 -160 -176 -303 27 -105 82 -195 176 -291 95 -96 188 -156 333
-214 93 -37 301 -95 342 -95 13 0 26 -4 29 -9 4 -5 -32 -78 -78 -163 -321
-586 -737 -1416 -1028 -2051 -430 -941 -567 -1375 -585 -1842 -33 -899 488
-1616 1271 -1750 117 -20 367 -20 505 1 657 96 1336 537 1886 1224 244 305
439 682 490 951 46 244 -11 546 -128 676 -50 55 -126 94 -195 100 -106 10
-229 -53 -310 -159 -22 -29 -94 -161 -161 -293 -279 -556 -532 -942 -859
-1309 -323 -361 -699 -581 -918 -536 -185 39 -294 294 -294 690 0 255 39 476
135 765 69 212 127 341 370 830 302 608 651 1255 1128 2090 156 274 513 892
521 902 1 1 96 12 211 24 210 22 276 24 841 16 109 -2 113 -1 180 33 54 28 74
45 97 82 95 153 -12 416 -247 604 -131 105 -369 214 -524 239 -35 6 -42 10
-37 23 31 74 100 283 125 375 67 252 96 552 71 727 -38 260 -131 483 -256 619
-80 86 -159 117 -254 100z"/>
</g>
</svg>
